<!DOCTYPE svg PUBLIC "-//W3C//DTD SVG 20010904//EN" "http://www.w3.org/TR/2001/REC-SVG-20010904/DTD/svg10.dtd">
<svg version="1.0" xmlns="http://www.w3.org/2000/svg" width="490px" height="70px" viewBox="0 0 4900 700" preserveAspectRatio="xMidYMid meet">
<g id="layer1" fill="#ffffff" stroke="none">
 <path d="M793 618 c-29 -14 -34 -75 -5 -63 86 36 157 16 172 -48 l8 -37 -25 20 c-35 28 -121 28 -155 0 -39 -30 -58 -80 -58 -150 0 -70 19 -120 58 -150 34 -28 114 -27 153 1 24 17 29 18 29 5 0 -10 9 -16 25 -16 l25 0 0 179 c0 169 -1 180 -23 212 -12 18 -34 39 -47 46 -30 15 -127 16 -157 1z m150 -200 c27 -36 26 -121 0 -156 -35 -47 -101 -47 -136 0 -27 36 -26 121 0 156 35 47 101 47 136 0z"/>
 <path d="M389 491 c-24 -25 -29 -38 -29 -78 0 -83 43 -113 160 -113 62 0 68 -2 63 -19 -14 -56 -80 -69 -180 -37 -20 7 -23 4 -23 -22 0 -25 6 -32 31 -41 49 -17 137 -14 170 6 48 28 59 67 59 202 l0 121 -25 0 c-19 0 -25 -5 -26 -22 0 -13 -3 -17 -6 -10 -9 23 -61 42 -113 42 -44 0 -56 -5 -81 -29z m153 -43 c20 -10 32 -31 42 -72 l7 -29 -65 7 c-82 8 -96 13 -106 40 -21 57 52 90 122 54z"/>
 <path d="M1689 491 c-24 -25 -29 -38 -29 -78 0 -83 43 -113 160 -113 62 0 68 -2 63 -19 -14 -56 -80 -69 -180 -37 -20 7 -23 4 -23 -22 0 -25 6 -32 31 -41 49 -17 137 -14 170 6 48 28 59 67 59 202 l0 121 -25 0 c-19 0 -25 -5 -26 -22 0 -13 -3 -17 -6 -10 -9 23 -61 42 -113 42 -44 0 -56 -5 -81 -29z m153 -43 c20 -10 32 -31 42 -72 l7 -29 -65 7 c-82 8 -96 13 -106 40 -21 57 52 90 122 54z"/>
 <path d="M3905 504 c-82 -45 -114 -104 -115 -212 0 -110 33 -172 112 -213 47 -24 161 -26 218 -3 36 15 40 20 40 51 0 19 -3 33 -7 31 -90 -46 -178 -54 -234 -22 -51 30 -72 74 -72 154 0 138 84 197 236 167 l37 -8 0 -59 0 -60 -50 0 c-47 0 -50 -2 -50 -25 0 -24 2 -25 75 -25 l75 0 0 99 0 99 -37 18 c-53 26 -187 30 -228 8z"/>
 <path d="M60 290 l0 -220 95 0 c144 0 185 29 185 130 0 95 -43 130 -160 130 l-70 0 0 90 c0 89 0 90 -25 90 l-25 0 0 -220z m204 -39 c25 -26 25 -76 0 -102 -14 -14 -40 -21 -87 -26 l-67 -6 0 83 0 83 67 -6 c47 -5 73 -12 87 -26z"/>
 <path d="M1130 345 l0 -165 25 0 25 0 0 165 0 165 -25 0 -25 0 0 -165z"/>
 <path d="M1300 345 l0 -165 25 0 c19 0 25 5 26 23 0 12 3 16 6 9 8 -21 60 -42 103 -42 92 0 110 34 110 210 l0 130 -25 0 c-25 0 -25 0 -25 -97 0 -99 -12 -167 -31 -179 -26 -16 -82 -5 -108 20 -24 25 -26 33 -30 141 -3 114 -3 115 -27 115 l-24 0 0 -165z"/>
 <path d="M2262 298 c-29 -117 -52 -216 -52 -220 0 -5 13 -8 28 -8 28 0 28 0 72 181 l45 181 45 -181 44 -181 42 0 41 0 44 182 44 181 45 -181 c44 -182 44 -182 72 -182 15 0 28 3 28 8 0 4 -23 103 -52 220 l-53 212 -41 0 -42 0 -43 -182 -44 -183 -43 183 -44 182 -42 0 -41 0 -53 -212z"/>
 <path d="M2840 290 l0 -220 135 0 135 0 0 25 0 25 -110 0 -110 0 0 65 0 65 110 0 110 0 0 25 0 25 -110 0 -110 0 0 80 0 80 115 0 115 0 0 25 0 25 -140 0 -140 0 0 -220z"/>
 <path d="M3220 290 l0 -220 105 0 c150 0 185 21 185 113 0 28 -7 53 -18 67 -18 22 -17 23 10 52 23 25 28 39 28 82 0 100 -41 126 -200 126 l-110 0 0 -220z m233 141 c12 -11 20 -33 20 -51 0 -53 -28 -71 -122 -77 l-81 -6 0 83 0 83 81 -6 c64 -4 86 -10 102 -26z m-15 -204 c19 -19 19 -65 0 -84 -9 -9 -44 -17 -92 -20 l-76 -6 0 68 0 68 76 -6 c48 -3 83 -11 92 -20z"/>
 <path d="M4290 290 l0 -220 25 0 25 0 0 220 0 220 -25 0 -25 0 0 -220z"/>
 <path d="M4560 315 l0 -195 -80 0 c-79 0 -80 0 -80 -25 l0 -25 185 0 185 0 0 25 c0 25 -1 25 -80 25 l-80 0 0 195 0 195 -25 0 -25 0 0 -195z"/>
 <path d="M467 127 c44 -72 69 -97 102 -97 30 0 32 2 20 18 -40 52 -85 92 -107 92 -16 0 -21 -4 -15 -13z"/>
 <path d="M1130 85 c0 -31 3 -35 25 -35 22 0 25 4 25 35 0 31 -3 35 -25 35 -22 0 -25 -4 -25 -35z"/>
 </g>
<g id="layer2" fill="#000000" stroke="none">
 <path d="M765 664 c-42 -24 -46 -31 -43 -99 1 -40 -4 -70 -15 -90 l-16 -30 -1 40 c0 22 -4 47 -10 55 -9 15 -105 28 -213 29 -106 2 -157 -48 -157 -152 0 -54 -1 -57 -19 -47 -11 5 -45 10 -75 10 l-56 0 0 74 c0 90 -12 106 -75 106 -75 0 -75 1 -75 -270 0 -204 2 -241 16 -254 12 -13 39 -16 130 -16 133 0 181 17 216 76 24 41 31 42 47 8 6 -14 23 -41 37 -60 26 -34 27 -34 110 -34 81 0 84 1 84 23 0 12 -12 39 -26 60 -25 37 -25 39 -7 52 10 8 21 15 24 15 4 0 16 18 27 41 l21 41 20 -41 c27 -53 81 -81 153 -80 96 0 189 15 199 30 5 8 9 102 9 209 0 183 -2 197 -23 234 -37 66 -66 81 -165 84 -66 2 -94 -2 -117 -14z m185 -47 c13 -7 35 -28 47 -46 22 -32 23 -43 23 -212 l0 -179 -25 0 c-16 0 -25 6 -25 16 0 13 -5 12 -29 -5 -39 -28 -119 -29 -153 -1 -39 30 -58 80 -58 150 0 70 19 120 58 150 34 28 120 28 155 0 l25 -20 -8 37 c-15 64 -86 84 -172 48 -29 -12 -24 49 5 63 30 15 127 14 157 -1z m-400 -112 c15 -8 30 -20 33 -27 3 -7 6 -3 6 10 1 17 7 22 26 22 l25 0 0 -121 c0 -135 -11 -174 -59 -202 -33 -20 -121 -23 -170 -6 -25 9 -31 16 -31 41 0 26 3 29 23 22 100 -32 166 -19 180 37 5 17 -1 19 -63 19 -117 0 -160 30 -160 113 0 40 5 53 29 78 25 24 37 29 81 29 28 0 64 -7 80 -15z m-440 -85 l0 -90 70 0 c117 0 160 -35 160 -130 0 -101 -41 -130 -185 -130 l-95 0 0 220 0 220 25 0 c25 0 25 -1 25 -90z m431 -317 c65 -70 66 -73 28 -73 -28 0 -39 8 -64 42 -48 67 -49 68 -23 68 15 0 38 -15 59 -37z"/>
 <path d="M851 450 c-85 -21 -86 -198 0 -220 65 -17 111 28 111 110 0 81 -46 127 -111 110z m48 -64 c7 -8 11 -31 9 -52 -6 -73 -68 -68 -68 5 0 54 32 79 59 47z"/>
 <path d="M453 460 c-29 -12 -43 -40 -33 -66 10 -27 24 -32 106 -40 l65 -7 -7 29 c-10 41 -22 62 -42 72 -30 16 -66 21 -89 12z"/>
 <path d="M110 200 l0 -83 67 6 c78 8 106 28 106 77 0 49 -28 69 -106 77 l-67 6 0 -83z m115 9 c12 -12 -3 -26 -37 -34 -26 -7 -28 -5 -28 25 0 30 2 32 28 25 15 -3 31 -11 37 -16z"/>
 <path d="M1673 551 c-17 -11 -36 -28 -42 -38 -9 -16 -10 -16 -11 -1 0 29 -29 48 -75 48 -66 0 -75 -15 -75 -124 0 -118 -7 -158 -29 -154 -29 6 -41 50 -41 150 0 114 -8 128 -75 128 -73 0 -75 -5 -75 -215 0 -148 3 -186 15 -198 10 -11 50 -17 131 -22 104 -7 122 -5 152 11 43 23 72 80 72 140 0 40 2 45 15 34 11 -9 12 -17 5 -30 -12 -22 -13 -100 -2 -117 29 -46 205 -59 273 -21 65 36 79 79 79 244 0 76 -4 146 -10 154 -5 9 -35 17 -82 21 -130 14 -190 11 -225 -10z m177 -46 c15 -8 30 -20 33 -27 3 -7 6 -3 6 10 1 17 7 22 26 22 l25 0 0 -121 c0 -135 -11 -174 -59 -202 -33 -20 -121 -23 -170 -6 -25 9 -31 16 -31 41 0 26 3 29 23 22 100 -32 166 -19 180 37 5 17 -1 19 -63 19 -117 0 -160 30 -160 113 0 40 5 53 29 78 25 24 37 29 81 29 28 0 64 -7 80 -15z m-499 -110 c4 -108 6 -116 30 -141 26 -25 82 -36 108 -20 19 12 31 80 31 179 0 97 0 97 25 97 l25 0 0 -130 c0 -176 -18 -210 -110 -210 -43 0 -95 21 -103 42 -3 7 -6 3 -6 -9 -1 -18 -7 -23 -26 -23 l-25 0 0 165 0 165 24 0 c24 0 24 -1 27 -115z"/>
 <path d="M1753 460 c-29 -12 -43 -40 -33 -66 10 -27 24 -32 106 -40 l65 -7 -7 29 c-10 41 -22 62 -42 72 -30 16 -66 21 -89 12z"/>
 <path d="M3875 548 c-58 -30 -85 -57 -111 -113 -34 -72 -34 -218 0 -290 27 -59 67 -96 130 -120 87 -33 277 -9 308 39 4 6 8 34 8 63 0 83 -30 100 -111 63 -24 -11 -66 -20 -92 -20 -40 0 -53 5 -78 29 -26 26 -29 36 -29 91 0 55 3 65 29 91 26 25 37 29 85 29 43 0 56 -3 56 -15 0 -10 -10 -15 -34 -15 -47 0 -66 -22 -66 -75 0 -66 15 -75 125 -75 126 0 125 -1 125 150 0 109 -2 121 -21 139 -57 53 -245 70 -324 29z m258 -52 l37 -18 0 -99 0 -99 -75 0 c-73 0 -75 1 -75 25 0 23 3 25 50 25 l50 0 0 60 0 59 -37 8 c-152 30 -236 -29 -236 -167 0 -49 5 -77 19 -101 49 -84 161 -96 287 -31 4 2 7 -12 7 -31 0 -31 -4 -36 -40 -51 -57 -23 -171 -21 -218 3 -79 41 -112 103 -112 213 1 108 33 167 115 212 41 22 175 18 228 -8z"/>
 <path d="M1096 544 c-14 -14 -16 -50 -15 -261 0 -135 3 -251 6 -259 7 -20 129 -20 136 0 3 8 6 124 6 259 1 279 2 277 -74 277 -26 0 -50 -6 -59 -16z m84 -199 l0 -165 -25 0 -25 0 0 165 0 165 25 0 25 0 0 -165z m0 -260 c0 -31 -3 -35 -25 -35 -22 0 -25 4 -25 35 0 31 3 35 25 35 22 0 25 -4 25 -35z"/>
 <path d="M2282 551 c-15 -9 -121 -418 -122 -468 0 -45 22 -63 78 -63 26 0 53 4 60 9 8 4 24 48 36 96 l22 89 19 -83 c10 -46 25 -90 33 -97 19 -20 136 -19 156 1 8 9 23 52 33 97 l17 81 22 -88 c12 -48 28 -91 34 -95 7 -4 113 -8 235 -9 254 -2 255 -1 255 74 0 66 -14 75 -126 75 -77 0 -94 3 -94 15 0 12 17 15 94 15 112 0 126 9 126 75 0 66 -14 75 -126 75 l-94 0 0 30 0 30 99 0 c77 0 103 4 115 16 15 14 16 -2 16 -180 0 -164 3 -197 16 -210 12 -13 40 -16 140 -16 105 0 131 3 164 20 58 29 73 67 68 161 -3 52 0 85 8 101 21 37 17 147 -6 185 -35 58 -81 73 -229 73 -104 0 -133 -3 -145 -16 -15 -14 -17 -14 -32 0 -23 24 -325 24 -348 0 -13 -13 -16 -44 -17 -177 l-1 -162 -43 169 c-24 93 -49 173 -57 177 -17 12 -129 11 -147 0 -8 -5 -24 -49 -36 -97 l-21 -87 -17 81 c-10 45 -25 88 -33 97 -17 17 -129 21 -152 6z m160 -223 l43 -183 44 183 43 182 42 0 41 0 53 -212 c29 -117 52 -216 52 -220 0 -5 -13 -8 -28 -8 -28 0 -28 0 -72 182 l-45 181 -44 -181 -44 -182 -41 0 -42 0 -44 181 -45 181 -45 -181 c-44 -181 -44 -181 -72 -181 -15 0 -28 3 -28 8 0 4 23 103 52 220 l53 212 41 0 42 0 44 -182z m678 157 l0 -25 -115 0 -115 0 0 -80 0 -80 110 0 110 0 0 -25 0 -25 -110 0 -110 0 0 -65 0 -65 110 0 110 0 0 -25 0 -25 -135 0 -135 0 0 220 0 220 140 0 140 0 0 -25z m350 10 c44 -23 60 -53 60 -111 0 -43 -5 -57 -28 -82 -27 -29 -28 -30 -10 -52 11 -14 18 -39 18 -67 0 -92 -35 -113 -185 -113 l-105 0 0 220 0 220 110 0 c79 0 119 -4 140 -15z"/>
 <path d="M3270 380 l0 -83 81 6 c94 6 122 24 122 77 0 53 -28 71 -122 77 l-81 6 0 -83z m145 9 c14 -14 -5 -27 -52 -35 l-43 -7 0 33 0 33 43 -7 c23 -4 46 -11 52 -17z"/>
 <path d="M3270 185 l0 -68 76 6 c84 6 107 19 107 62 0 43 -23 56 -107 62 l-76 6 0 -68z m101 8 c33 -7 33 -7 9 -14 -41 -12 -60 -10 -60 6 0 17 4 18 51 8z"/>
 <path d="M4256 544 c-23 -23 -24 -485 -1 -508 12 -12 58 -15 274 -15 294 -2 291 -2 291 74 0 62 -17 75 -96 75 l-64 0 0 179 c0 205 -2 211 -75 211 -73 0 -75 -6 -75 -211 l0 -179 -60 0 -60 0 0 179 c0 150 -3 182 -16 195 -21 21 -97 21 -118 0z m84 -254 l0 -220 -25 0 -25 0 0 220 0 220 25 0 25 0 0 -220z m270 25 l0 -195 80 0 c79 0 80 0 80 -25 l0 -25 -185 0 -185 0 0 25 c0 25 1 25 80 25 l80 0 0 195 0 195 25 0 25 0 0 -195z"/>
 </g>

</svg>